<svg width="64" height="56" viewBox="0 0 64 56" fill="none" xmlns="http://www.w3.org/2000/svg">
<path fill-rule="evenodd" clip-rule="evenodd" d="M31.6823 8.95313C35.849 4.60418 38.776 0.843758 45.224 0.0989661C57.2917 -1.28124 68.3698 11.0729 62.276 23.2396C60.5365 26.7031 57.0104 30.8229 53.1042 34.8646C49.6562 38.4323 45.9115 41.9427 42.849 44.8958L34.375 35.2396L38.5417 29.9636C45.7135 33.4323 55.9271 19.4167 49.0573 13.6042C43.4062 8.82293 31.7396 19.2188 34.8958 27.0261L31.1667 31.5469L27.3333 27.1771C27.7228 26.7836 28.0323 26.3185 28.2448 25.8073C28.901 23.6667 28.599 21.8281 26.1302 19.1094L20.0833 11.849C19.224 10.8438 17.2031 12.3177 18.0521 13.5365L22.875 19.4844C23.7865 20.5938 22.0885 22.0885 21.151 20.9219L16.1458 14.7708C15.2187 13.7031 13.2969 15.1146 14.2656 16.3333C15.6719 18.0208 17.8542 20.7917 19.2604 22.4844C19.3645 22.5772 19.4473 22.6913 19.5031 22.8191C19.559 22.9468 19.5867 23.0851 19.5842 23.2245C19.5818 23.3639 19.5492 23.5011 19.4889 23.6268C19.4285 23.7524 19.3418 23.8636 19.2345 23.9527C19.1272 24.0417 19.002 24.1066 18.8674 24.1428C18.7328 24.1791 18.5919 24.1858 18.4544 24.1626C18.317 24.1394 18.1861 24.0868 18.0708 24.0084C17.9556 23.93 17.8586 23.8277 17.7865 23.7083L12.8385 17.599C12.1146 16.8073 10.9271 17.3021 10.6094 18.224C10.2917 19.1458 11.1042 19.9271 11.651 20.6615L17.1875 27.8073C18.901 29.7917 20.8333 30.974 23.0521 30.3073C23.4774 30.1613 23.8832 29.9636 24.2604 29.7188L28.349 34.9271L20.1667 44.875L20.1198 44.9375C11.3385 36.9323 0.427114 27.2292 2.97306e-05 15.625C-0.328095 6.1198 7.15107 0.0468828 15.7552 0.161466C23.4375 0.260425 26.6771 4.08334 31.6823 8.95313ZM39.0625 48.6042L31.6667 55.9427L24.1979 48.7292L23.9583 48.4948C24.0208 48.4219 24.0885 48.349 24.151 48.2708L31.5 38.8958L39.0625 48.6042Z" fill="#11CB5F"/>
</svg>
